<?xml version="1.0" standalone="no"?>
<!DOCTYPE svg PUBLIC "-//W3C//DTD SVG 20010904//EN"
 "http://www.w3.org/TR/2001/REC-SVG-20010904/DTD/svg10.dtd">
<svg version="1.0" xmlns="http://www.w3.org/2000/svg"
 width="900.000000pt" height="900.000000pt" viewBox="0 0 900.000000 900.000000"
 preserveAspectRatio="xMidYMid meet">
<metadata>
Created by potrace 1.14, written by Peter Selinger 2001-2017
</metadata>
<g transform="translate(0.000000,900.000000) scale(0.100000,-0.100000)"
fill="#000000" stroke="none">
<path d="M3050 8850 c-188 -25 -348 -106 -472 -238 -160 -170 -239 -404 -209
-619 37 -263 184 -477 410 -596 77 -41 123 -57 234 -81 l27 -6 0 -195 c0 -107
3 -195 8 -195 4 1 18 7 32 15 14 8 41 14 60 14 19 0 46 -6 60 -14 14 -8 28
-14 33 -15 4 0 7 87 7 194 0 177 2 195 18 199 9 3 42 11 72 18 30 6 74 20 98
31 54 23 55 23 42 -3 -7 -11 -10 -23 -7 -25 2 -3 10 9 17 26 8 20 31 40 69 62
31 17 95 70 142 118 73 74 94 103 137 191 68 140 86 225 79 383 -9 213 -74
362 -222 512 -78 79 -104 98 -195 143 -58 28 -116 54 -130 57 -161 34 -209 38
-310 24z m283 -109 c37 -12 67 -25 67 -29 0 -4 -17 -36 -38 -72 -35 -60 -40
-65 -72 -65 -19 0 -41 4 -47 9 -16 11 -185 12 -203 1 -7 -5 -25 -9 -39 -10
-14 -2 -35 -6 -47 -10 -17 -5 -27 4 -62 57 -23 36 -42 69 -42 75 0 12 96 47
171 63 72 15 235 5 312 -19z m141 -86 c8 -22 -4 -45 -24 -45 -23 0 -44 26 -36
45 7 19 52 20 60 0z m-640 -17 c8 -14 7 -21 -6 -34 -30 -30 -75 9 -48 42 16
18 39 15 54 -8z m813 -91 c82 -89 153 -228 168 -329 6 -37 4 -48 -6 -49 -69
-4 -152 -3 -156 4 -2 4 -9 4 -15 1 -7 -5 -9 1 -5 18 5 17 -1 40 -17 71 -14 25
-23 47 -21 49 2 2 -15 3 -38 3 -34 -1 -41 -5 -39 -18 2 -9 -2 -17 -7 -17 -16
0 -23 20 -12 33 8 10 4 13 -14 13 -17 0 -22 -3 -15 -10 13 -13 13 -29 0 -21
-6 4 -9 1 -8 -6 2 -6 -2 -13 -9 -16 -8 -3 -10 4 -7 21 2 15 0 26 -6 26 -6 0
-9 -4 -5 -9 3 -5 0 -13 -6 -17 -8 -5 -9 -3 -4 7 8 12 6 12 -8 0 -9 -7 -17 -10
-17 -6 0 4 -6 2 -14 -4 -8 -7 -13 -22 -11 -33 3 -12 -1 -28 -7 -35 -6 -7 -8
-16 -4 -20 3 -3 6 0 6 8 0 12 2 11 11 -1 9 -13 10 -13 6 0 -5 18 10 50 24 50
6 0 7 -5 3 -12 -4 -6 -3 -8 3 -5 6 4 11 -4 11 -18 0 -14 -4 -22 -9 -19 -5 3
-6 -3 -2 -13 5 -14 4 -16 -8 -7 -8 6 -28 10 -45 9 -28 -2 -32 1 -29 23 1 13 9
28 16 33 8 5 10 9 5 9 -5 0 -3 6 3 13 6 8 7 18 3 23 -4 5 -3 6 1 2 5 -3 33 7
63 22 33 18 56 25 60 19 4 -6 15 -2 28 10 19 18 23 18 41 5 19 -14 19 -15 -9
-10 -16 3 -25 2 -22 -2 4 -4 20 -7 36 -8 l28 -1 -19 31 c-10 17 -41 54 -69 82
l-51 52 41 76 42 76 37 -29 c21 -16 55 -49 78 -74z m-882 6 c22 -38 38 -72 36
-78 -2 -5 -4 -15 -5 -21 -1 -7 -7 -18 -14 -26 -6 -8 -9 -18 -5 -21 10 -10 43
24 36 37 -3 6 -2 7 3 3 5 -5 9 -12 9 -15 0 -4 4 -12 8 -19 4 -6 3 -15 -3 -18
-6 -4 -10 -3 -9 2 3 20 -2 24 -17 12 -36 -30 -55 -11 -25 25 7 9 9 16 5 16
-11 0 -39 -42 -36 -53 1 -5 -2 -6 -7 -3 -13 8 -54 -61 -45 -75 4 -8 3 -9 -4
-5 -13 8 -36 -30 -28 -49 3 -8 1 -15 -4 -17 -6 -2 -15 -26 -22 -55 l-12 -52
-73 -7 c-96 -8 -106 -4 -98 43 12 68 46 167 83 238 35 66 155 205 178 205 5 0
28 -30 49 -67z m226 10 c-10 -4 -8 -9 10 -20 22 -13 11 -12 -28 4 -12 5 -14 3
-8 -7 6 -9 4 -11 -5 -5 -10 6 -9 11 5 22 11 7 24 13 29 12 6 0 5 -3 -3 -6z
m76 1 c-3 -3 -12 -4 -19 -1 -8 3 -5 6 6 6 11 1 17 -2 13 -5z m166 -1 c-7 -2
-19 -2 -25 0 -7 3 -2 5 12 5 14 0 19 -2 13 -5z m-65 -10 c-15 -2 -42 -2 -60 0
-18 2 -6 4 27 4 33 0 48 -2 33 -4z m137 -3 c-3 -5 -12 -10 -18 -10 -7 0 -6 4
3 10 19 12 23 12 15 0z m-185 -14 c0 -2 -11 -6 -25 -8 -13 -3 -22 -1 -19 3 5
9 44 13 44 5z m73 -3 c-7 -2 -19 -2 -25 0 -7 3 -2 5 12 5 14 0 19 -2 13 -5z
m-148 -13 c-3 -5 -12 -10 -18 -10 -7 0 -6 4 3 10 19 12 23 12 15 0z m-35 -15
c0 -2 -6 -5 -13 -8 -8 -3 -14 1 -14 8 0 7 6 11 14 8 7 -3 13 -6 13 -8z m143 8
c-7 -2 -21 -2 -30 0 -10 3 -4 5 12 5 17 0 24 -2 18 -5z m211 -5 c-5 -7 -2 -9
8 -6 8 4 15 1 15 -6 0 -6 -8 -12 -17 -12 -11 0 -16 7 -15 16 5 21 4 20 11 20
3 0 2 -5 -2 -12z m-434 -29 c0 -6 -7 -3 -16 5 -8 9 -20 13 -26 10 -7 -4 -8 -2
-4 4 8 14 46 -2 46 -19z m147 25 c-3 -3 -12 -4 -19 -1 -8 3 -5 6 6 6 11 1 17
-2 13 -5z m150 0 c-3 -3 -12 -4 -19 -1 -8 3 -5 6 6 6 11 1 17 -2 13 -5z m-64
-11 c-13 -2 -33 -2 -45 0 -13 2 -3 4 22 4 25 0 35 -2 23 -4z m-63 -23 c-8 -5
-19 -10 -25 -10 -5 0 -3 5 5 10 8 5 20 10 25 10 6 0 3 -5 -5 -10z m101 -8 c-7
-2 -18 1 -23 6 -8 8 -4 9 13 5 13 -4 18 -8 10 -11z m-310 -16 c-6 -7 -7 -17
-3 -21 4 -5 2 -5 -5 -2 -9 6 -10 18 -4 45 1 2 6 0 11 -3 8 -5 8 -11 1 -19z
m556 9 c0 -8 -4 -12 -9 -9 -5 3 -6 10 -3 15 9 13 12 11 12 -6z m-520 -10 c0
-8 -4 -12 -9 -9 -5 3 -6 10 -3 15 9 13 12 11 12 -6z m226 8 c-7 -2 -19 -2 -25
0 -7 3 -2 5 12 5 14 0 19 -2 13 -5z m182 -3 c3 -6 -1 -7 -9 -4 -18 7 -21 14
-7 14 6 0 13 -4 16 -10z m30 1 c3 -5 2 -12 -3 -15 -5 -3 -9 1 -9 9 0 17 3 19
12 6z m121 -12 c1 -5 3 -10 4 -11 1 -2 3 -20 4 -40 2 -36 1 -37 -15 -22 -10 9
-17 19 -16 23 1 3 -2 7 -8 9 -5 1 -11 -2 -11 -8 -1 -5 -3 -13 -4 -17 -1 -5 -2
-12 -1 -16 1 -5 -3 -6 -9 -2 -8 5 -8 11 0 20 8 9 8 15 0 20 -6 3 -8 10 -5 15
6 9 24 8 42 -3 18 -11 25 9 8 23 -8 7 -12 17 -9 22 6 10 18 3 20 -13z m-399 5
c-3 -3 -12 -4 -19 -1 -8 3 -5 6 6 6 11 1 17 -2 13 -5z m130 0 c-3 -3 -12 -4
-19 -1 -8 3 -5 6 6 6 11 1 17 -2 13 -5z m-44 -11 c3 -5 -17 -8 -45 -9 -30 -1
-44 2 -36 7 16 11 75 12 81 2z m42 -23 c-3 -5 -14 -10 -23 -9 -14 0 -13 2 3 9
27 11 27 11 20 0z m-118 -6 c-3 -3 -12 -4 -19 -1 -8 3 -5 6 6 6 11 1 17 -2 13
-5z m437 -15 c-3 -5 -10 -7 -15 -3 -5 3 -7 10 -3 15 3 5 10 7 15 3 5 -3 7 -10
3 -15z m-394 -19 c-8 -5 -24 -9 -35 -9 l-20 0 20 9 c11 5 27 9 35 9 13 1 13 0
0 -9z m-401 -14 c11 -14 6 -15 -27 -7 -4 1 8 21 12 21 2 0 9 -6 15 -14z m101
10 c0 -2 -8 -10 -17 -17 -16 -13 -17 -12 -4 4 13 16 21 21 21 13z m277 -22
c-3 -3 -12 -4 -19 -1 -8 3 -5 6 6 6 11 1 17 -2 13 -5z m-328 -21 c-6 -7 -15
-10 -20 -7 -13 8 -3 21 15 21 12 0 13 -4 5 -14z m-45 -1 c3 -5 -1 -9 -9 -9 -8
0 -12 4 -9 9 3 4 7 8 9 8 2 0 6 -4 9 -8z m403 2 c-3 -3 -12 -4 -19 -1 -8 3 -5
6 6 6 11 1 17 -2 13 -5z m-307 -29 c-6 -7 -9 -17 -8 -23 2 -5 -1 -12 -7 -13
-12 -5 -13 32 -2 48 5 7 13 10 19 7 5 -3 5 -11 -2 -19z m176 -1 c2 -12 -1 -13
-11 -4 -8 7 -20 9 -27 5 -7 -4 -4 1 6 9 21 17 29 14 32 -10z m34 6 c-9 -6 -9
-9 -1 -13 8 -4 8 -5 0 -3 -7 1 -13 9 -15 18 -1 11 3 15 13 11 11 -4 12 -8 3
-13z m234 -1 c-3 -5 -10 -7 -15 -3 -5 3 -7 10 -3 15 3 5 10 7 15 3 5 -3 7 -10
3 -15z m-396 -2 c-1 -3 7 -16 20 -30 16 -17 18 -24 8 -24 -8 0 -14 5 -13 11 1
5 -4 11 -10 12 -7 1 -16 2 -19 3 -4 0 -1 7 5 14 6 8 9 17 6 20 -3 4 -2 5 1 3
3 -2 4 -7 2 -9z m668 0 c4 -4 9 -19 10 -33 2 -21 0 -23 -12 -13 -8 7 -12 21
-9 33 4 15 1 13 -10 -6 -18 -32 -30 -35 -44 -10 -11 18 -15 9 -12 -28 0 -10
-1 -11 -5 -2 -3 6 -11 12 -17 12 -8 0 -7 -4 1 -12 18 -18 14 -32 -5 -17 -14
12 -14 10 2 -14 10 -15 15 -30 12 -34 -4 -3 -10 2 -13 11 -5 14 -9 15 -15 4
-5 -8 -7 2 -4 23 5 43 -15 69 -39 50 -12 -10 -14 -9 -12 5 2 12 12 19 28 19
17 1 24 -3 21 -11 -8 -21 14 -24 32 -4 17 18 20 19 35 5 16 -14 18 -14 24 0 3
9 4 21 1 25 -6 10 21 7 31 -3z m64 -61 c15 -40 1 -61 -42 -62 -27 -2 -38 2
-38 13 0 8 5 11 10 8 6 -4 5 4 -1 19 -13 27 -29 26 -29 -2 -1 -16 -2 -15 -14
1 -13 16 -14 16 -20 1 -4 -9 -4 -19 -1 -22 3 -3 5 0 5 7 0 7 5 9 10 6 6 -3 10
-11 10 -16 0 -6 -4 -7 -10 -4 -5 3 -10 0 -10 -7 0 -8 -4 -6 -11 4 -7 12 -6 24
1 38 6 11 8 26 4 33 -4 6 2 4 13 -6 20 -17 22 -17 31 -2 8 16 11 15 24 -4 19
-27 28 -11 22 38 l-4 34 20 -26 c11 -13 24 -36 30 -51z m-880 58 c0 -8 -19
-13 -24 -6 -3 5 1 9 9 9 8 0 15 -2 15 -3z m56 -6 c3 -4 -1 -5 -10 -4 -8 1 -18
5 -22 8 -3 4 1 5 10 4 8 -1 18 -5 22 -8z m394 -2 c0 -3 -4 -8 -10 -11 -5 -3
-10 -1 -10 4 0 6 5 11 10 11 6 0 10 -2 10 -4z m-497 -23 c-3 -7 -6 -13 -8 -13
-2 0 -5 6 -8 13 -3 8 1 14 8 14 7 0 11 -6 8 -14z m611 -12 c-1 -14 -3 -28 -4
-31 -1 -3 -2 -8 -1 -12 2 -14 -16 -8 -30 9 -8 9 -27 24 -44 34 l-30 19 37 -5
c20 -3 39 -1 42 3 12 20 33 8 30 -17z m-309 -2 c0 -5 3 -9 8 -9 4 0 12 0 17 0
6 0 9 5 8 11 -2 6 10 13 26 14 26 4 24 1 -17 -25 -24 -15 -47 -34 -50 -42 -3
-7 -4 1 -4 17 2 21 -2 29 -12 27 -12 -3 -12 0 -1 13 13 15 25 12 25 -6z m-249
-26 c2 -27 1 -27 -14 3 -8 15 -8 21 1 21 7 0 13 -11 13 -24z m38 19 c3 -5 -1
-9 -9 -9 -8 0 -12 4 -9 9 3 4 7 8 9 8 2 0 6 -4 9 -8z m52 -21 c1 -9 3 -23 6
-31 3 -8 3 -11 0 -6 -2 4 -8 3 -12 -4 -5 -8 -9 -7 -13 5 -4 9 -3 13 3 10 13
-8 13 1 1 24 -7 12 -6 18 2 18 7 0 13 -7 13 -16z m-136 -36 c0 -5 -5 -3 -10 5
-5 8 -10 20 -10 25 0 6 5 3 10 -5 5 -8 10 -19 10 -25z m90 0 c0 -5 -5 -3 -10
5 -5 8 -10 20 -10 25 0 6 5 3 10 -5 5 -8 10 -19 10 -25z m94 27 c3 -5 -1 -9
-9 -9 -8 0 -12 4 -9 9 3 4 7 8 9 8 2 0 6 -4 9 -8z m49 -18 c-4 -12 -8 -13 -14
-3 -9 15 -2 32 11 24 5 -3 6 -13 3 -21z m598 -1 c-12 -20 -14 -14 -5 12 4 9 9
14 11 11 3 -2 0 -13 -6 -23z m-631 -9 c0 -8 -19 -13 -24 -6 -3 5 1 9 9 9 8 0
15 -2 15 -3z m-189 -27 c-10 -9 -11 -8 -5 6 3 10 9 15 12 12 3 -3 0 -11 -7
-18z m662 -14 c12 4 21 -2 30 -21 15 -33 15 -51 -2 -77 -12 -19 -12 -19 -8 3
3 13 1 20 -5 16 -7 -4 -9 7 -6 32 3 22 3 30 0 19 l-4 -20 -9 20 c-7 16 -8 14
-4 -9 3 -15 8 -42 11 -60 3 -25 3 -27 -5 -11 -9 19 -10 19 -10 -2 -1 -13 -6
-23 -11 -23 -6 0 -8 12 -5 28 6 27 6 27 -8 -3 -13 -29 -14 -28 -9 26 2 34 -1
65 -8 79 -8 15 -8 20 -1 16 6 -4 11 -2 11 5 0 7 6 5 14 -6 8 -11 19 -16 29
-12z m-220 1 c-3 -8 -16 -20 -29 -25 -19 -6 -24 -16 -24 -41 0 -47 -15 -67
-29 -40 -18 34 -13 71 14 97 28 29 78 35 68 9z m-201 -8 c1 10 3 -17 3 -58 l1
-76 -30 2 c-16 1 -32 8 -34 16 -3 8 0 10 8 5 9 -6 11 -4 6 4 -5 7 -13 10 -20
8 -8 -3 -10 10 -6 42 l4 46 7 -40 c6 -39 6 -39 8 -7 0 18 6 43 12 54 11 20 12
21 24 4 13 -17 13 -17 17 0z m615 -63 c-2 -16 -4 -5 -4 22 0 28 2 40 4 28 2
-13 2 -35 0 -50z m20 -10 c-2 -16 -4 -3 -4 27 0 30 2 43 4 28 2 -16 2 -40 0
-55z m-373 51 c19 -51 -18 -114 -68 -114 -32 0 -25 27 10 41 19 7 24 16 24 42
0 46 21 65 34 31z m407 -13 c7 11 9 8 9 -9 0 -13 -4 -21 -9 -17 -5 3 -12 -3
-14 -12 -3 -10 -5 2 -4 27 0 25 2 34 4 21 4 -19 7 -21 14 -10z m186 13 c7 -18
-6 -45 -24 -51 -6 -2 -18 3 -27 12 -12 12 -13 21 -6 36 13 23 48 25 57 3z
m-1106 -27 c-10 -9 -11 -8 -5 6 3 10 9 15 12 12 3 -3 0 -11 -7 -18z m846 -9
c-3 -7 -5 -2 -5 12 0 14 2 19 5 13 2 -7 2 -19 0 -25z m-1019 -17 c-2 -20 -8
-26 -28 -26 -30 0 -40 33 -15 51 25 19 47 6 43 -25z m339 2 c-3 -10 -5 -4 -5
12 0 17 2 24 5 18 2 -7 2 -21 0 -30z m-140 -25 c-3 -7 -5 -2 -5 12 0 14 2 19
5 13 2 -7 2 -19 0 -25z m-17 12 c0 -5 -2 -10 -4 -10 -3 0 -8 5 -11 10 -3 6 -1
10 4 10 6 0 11 -4 11 -10z m1116 -47 c-2 -16 -8 -46 -11 -68 -18 -108 -93
-245 -188 -342 -64 -66 -83 -77 -74 -43 3 11 1 18 -3 15 -9 -6 -80 105 -85
133 -2 9 -4 18 -4 20 -1 1 -1 5 0 8 1 3 -11 18 -25 33 -15 15 -23 30 -19 34 3
4 1 7 -6 7 -7 0 -9 4 -6 10 3 5 -6 26 -21 45 -14 19 -23 35 -20 35 4 0 -3 18
-14 39 -19 37 -14 61 9 47 5 -4 11 -1 13 6 3 8 7 6 11 -5 4 -10 2 -16 -5 -14
-7 1 -13 -8 -14 -21 -1 -16 2 -20 11 -12 6 5 16 6 20 2 5 -4 5 -1 1 6 -4 7 -2
20 6 29 9 12 9 15 1 9 -8 -4 -13 -2 -13 4 0 7 6 10 14 7 8 -3 17 -3 19 1 2 4
2 0 -1 -8 -11 -37 -7 -45 22 -45 16 0 31 -6 34 -14 3 -9 0 -11 -9 -6 -8 5 -10
4 -6 0 12 -14 36 -14 31 -1 -2 6 3 20 12 31 15 20 15 20 11 -1 -6 -29 21 -25
38 5 11 21 13 22 19 6 8 -21 -1 -55 -15 -55 -6 0 -7 6 -3 13 6 9 5 9 -8 0 -8
-7 -18 -10 -22 -6 -4 4 -4 -1 0 -11 5 -12 4 -17 -3 -13 -11 7 -11 -22 1 -42 5
-7 4 -17 -2 -23 -6 -6 -8 -18 -5 -27 6 -14 3 -13 -14 2 -14 13 -23 15 -28 7
-5 -8 -11 -8 -21 1 -7 6 -11 16 -7 23 4 6 -1 5 -10 -3 -12 -9 -14 -17 -7 -26
5 -6 6 -16 2 -21 -4 -4 0 -3 9 4 21 15 32 4 17 -17 -7 -9 -8 -13 -4 -9 13 11
37 -12 29 -26 -21 -33 -7 -34 28 0 26 25 36 41 29 48 -12 12 -13 29 -1 22 4
-3 8 6 7 21 -1 14 5 28 11 30 9 3 12 -5 9 -28 -3 -30 -2 -31 9 -15 8 10 11 25
8 34 -5 11 -3 13 7 7 9 -5 11 -4 6 4 -4 6 -11 9 -16 6 -10 -6 -40 22 -40 37 0
6 7 5 16 -3 24 -19 40 -19 40 1 0 10 -4 16 -8 14 -11 -7 -10 -2 7 39 18 43 20
70 4 47 -8 -12 -10 -11 -7 5 6 35 48 22 47 -15 0 -10 -3 -8 -9 5 -7 16 -9 17
-9 3 -1 -9 -4 -25 -7 -35 -5 -15 -4 -16 6 -3 10 13 11 12 7 -5 -3 -11 -7 -27
-9 -35 -3 -8 -3 -11 0 -6 2 4 8 3 12 -4 4 -7 11 17 14 53 8 74 4 72 129 75
l59 2 -6 -27z m-282 -19 c8 34 32 33 39 -1 7 -37 0 -43 -9 -8 l-7 27 -17 -37
-17 -37 -7 28 -7 28 -18 -28 c-16 -23 -19 -25 -25 -10 -4 9 -4 19 -1 22 3 3 5
-1 5 -9 0 -11 2 -11 10 1 5 8 10 20 10 25 0 6 -5 3 -10 -5 -9 -13 -10 -13 -10
0 -1 8 -7 3 -16 -12 -16 -31 -29 -38 -20 -10 5 14 4 14 -9 -2 -18 -24 -19 -16
-4 18 17 36 79 41 95 7 l11 -24 7 27z m-904 -19 c5 -14 12 -25 15 -25 2 0 0
11 -5 25 -5 14 -6 25 -1 25 16 0 22 -51 9 -68 -12 -15 -11 -16 5 -3 20 15 22
9 6 -21 -9 -16 -8 -19 2 -13 9 6 11 3 6 -9 -4 -10 0 -27 8 -39 8 -12 15 -16
15 -10 0 7 9 11 20 10 21 -1 22 -22 2 -22 -16 0 -15 -20 1 -21 19 -1 37 17 30
30 -4 7 -1 6 7 -1 11 -10 10 -16 -5 -33 -10 -11 -22 -17 -26 -14 -15 9 -10 -3
7 -16 8 -8 14 -9 12 -3 -2 6 0 11 5 12 4 1 7 -2 8 -6 0 -5 9 -17 20 -29 10
-11 17 -23 14 -26 -3 -2 4 -13 15 -23 19 -17 19 -17 15 4 -2 12 0 19 4 16 5
-2 8 5 7 18 -1 14 4 21 13 19 12 -3 12 0 1 12 -12 15 -7 21 15 16 6 -1 7 2 3
6 -4 4 -3 13 3 21 6 7 8 13 4 13 -3 0 3 12 14 26 11 15 17 31 14 38 -4 6 -8
16 -8 21 0 6 -6 11 -12 11 -7 1 -18 2 -24 3 -5 0 -8 5 -4 10 3 6 14 8 25 6 12
-2 18 0 15 6 -4 5 -11 7 -16 4 -5 -4 -9 -2 -9 3 0 17 13 22 27 10 10 -8 17 -8
24 -1 8 8 6 11 -6 10 -10 -1 -20 4 -23 12 -3 10 -1 11 9 5 8 -5 22 -9 32 -9 9
0 16 -4 15 -10 -2 -5 -6 -9 -10 -8 -5 2 -6 -7 -4 -20 2 -12 -10 -48 -25 -79
-16 -32 -26 -58 -23 -58 4 0 -1 -9 -11 -20 -10 -11 -15 -20 -11 -20 3 0 0 -13
-9 -30 -8 -16 -15 -32 -15 -35 0 -8 -67 -138 -83 -159 -13 -18 -18 -15 -88 51
-87 83 -157 195 -188 299 -34 116 -36 114 64 114 82 0 86 -1 95 -25z m54 0
l-5 30 15 -25 c8 -14 12 -35 10 -46 -3 -12 -1 -25 5 -28 6 -4 11 -12 11 -18 0
-6 -7 -5 -17 3 -15 13 -15 12 -2 -8 9 -16 16 -19 21 -10 6 9 8 9 8 0 0 -7 5
-13 11 -13 8 0 8 4 2 13 -6 6 -11 19 -11 27 0 8 -4 26 -7 40 -5 20 -5 22 5 10
9 -12 10 -11 5 9 -5 16 -4 21 4 17 7 -5 9 -1 5 11 -5 16 -4 16 10 -1 17 -21
22 -41 8 -32 -4 2 -8 -7 -7 -21 0 -30 31 -42 31 -13 0 10 -4 16 -8 14 -11 -7
-10 7 1 25 7 10 10 10 16 1 14 -22 12 -90 -3 -102 -11 -10 -13 -8 -10 6 2 12
-4 20 -15 22 -14 2 -16 0 -7 -11 7 -8 8 -20 4 -26 -5 -8 -3 -9 6 -4 9 5 11 4
6 -4 -4 -6 -4 -11 1 -10 27 5 35 -1 23 -16 -7 -8 -15 -13 -19 -11 -4 3 -7 -6
-7 -19 0 -13 4 -21 10 -18 5 4 6 1 1 -7 -5 -8 -4 -11 2 -7 6 4 16 0 22 -7 8
-10 9 -16 1 -21 -6 -3 -7 -11 -4 -17 4 -7 2 -8 -5 -4 -6 4 -9 11 -6 15 2 5 -4
16 -15 26 -11 10 -17 21 -15 26 3 4 1 11 -5 14 -8 5 -7 11 1 21 10 12 9 18 -3
30 -8 9 -21 16 -29 17 -8 2 -20 6 -26 10 -8 5 -13 3 -13 -4 0 -23 -11 -1 -15
30 -2 18 0 29 5 26 5 -3 3 10 -5 29 -19 45 -19 71 0 31 l14 -30 -5 30z m36 14
c0 8 2 12 5 9 3 -3 2 -13 -1 -22 -5 -14 -9 -15 -15 -4 -5 7 -9 18 -9 23 0 6 5
3 10 -5 8 -12 10 -12 10 -1z m128 -12 c7 -5 12 -3 12 4 0 7 3 9 7 5 5 -4 -1
-14 -11 -22 -11 -8 -16 -14 -10 -14 5 0 2 -5 -6 -10 -13 -9 -12 -12 4 -25 10
-8 24 -12 30 -8 6 3 8 3 4 -2 -4 -4 -3 -14 2 -20 7 -8 4 -20 -11 -39 -11 -14
-17 -26 -13 -26 4 0 -3 -11 -16 -25 -13 -14 -20 -25 -16 -25 4 0 4 -5 1 -11
-5 -7 -14 -4 -26 7 -18 16 -18 18 -3 36 13 14 21 15 33 7 9 -6 4 0 -11 14 -21
20 -24 28 -15 36 16 12 14 88 -2 104 -6 6 -11 14 -11 17 0 9 42 6 58 -3z m158
-28 c13 -14 19 -37 20 -69 l0 -49 -27 16 c-15 9 -28 19 -27 22 0 3 -1 8 -2 11
-6 14 -6 61 0 65 4 3 6 -8 5 -24 -2 -25 1 -29 18 -25 26 5 38 17 12 12 -14 -2
-20 3 -20 17 0 11 -4 26 -8 33 -13 20 8 14 29 -9z m298 -37 c-3 -35 -37 -75
-58 -69 -14 5 -16 40 -3 56 9 11 9 13 0 8 -6 -4 -10 -2 -9 5 3 24 18 39 32 34
7 -3 16 0 20 6 5 7 2 8 -6 3 -9 -5 -11 -4 -6 4 15 23 34 -7 30 -47z m-580 2
c3 -8 2 -12 -4 -9 -6 3 -10 10 -10 16 0 14 7 11 14 -7z m810 -56 c-9 -14 -23
2 -17 18 4 12 8 13 14 3 4 -7 5 -17 3 -21z m-22 -72 c3 3 9 1 12 -4 3 -5 -9
-22 -26 -38 -18 -16 -27 -22 -20 -13 10 13 9 19 -2 28 -8 7 -13 20 -11 29 2 9
4 19 4 21 1 2 9 -3 19 -12 10 -10 21 -14 24 -11z m-119 -44 c15 -13 17 -35 5
-47 -3 -4 -9 -1 -14 6 -4 7 -3 10 3 6 5 -3 10 1 10 9 0 10 -4 11 -11 4 -17
-17 -27 -11 -17 8 7 14 6 19 -4 19 -7 0 -11 -7 -7 -15 3 -9 1 -13 -5 -9 -7 4
-10 0 -8 -10 1 -10 9 -17 17 -15 9 1 21 -5 28 -13 10 -12 10 -15 -1 -16 -8 -1
-18 0 -24 1 -5 1 -17 3 -25 4 -18 3 -21 53 -4 71 16 15 36 14 57 -3z m-145
-23 c-6 -4 -1 -10 11 -14 12 -3 19 -11 16 -16 -4 -5 0 -9 7 -9 7 -1 2 -7 -12
-15 -33 -19 -52 -18 -20 1 21 13 22 14 4 9 -20 -5 -22 -2 -21 33 1 30 4 37 13
28 8 -7 8 -13 2 -17z m-300 4 c16 -16 16 -16 -3 -9 -33 13 -37 12 -40 -8 -3
-14 -1 -16 8 -7 22 22 30 11 9 -12 -20 -21 -20 -23 -3 -23 10 0 18 7 17 15 -1
7 4 16 11 18 12 4 12 -14 1 -32 -8 -13 -58 -14 -57 -1 0 5 -5 12 -12 17 -11 6
-10 13 1 33 15 30 44 34 68 9z m78 -28 c0 -14 -5 -25 -10 -25 -6 0 -4 -5 4
-10 8 -5 11 -10 5 -10 -5 0 -17 5 -25 10 -12 8 -12 10 -1 10 8 0 11 3 8 6 -5
6 9 44 16 44 2 0 3 -11 3 -25z m290 -57 c18 -20 18 -21 1 -15 -10 4 -23 7 -28
7 -6 0 -7 5 -3 11 5 8 1 8 -14 0 -31 -16 -51 -13 -22 4 34 19 44 19 66 -7z
m-296 1 c12 -9 11 -10 -8 -6 -12 3 -20 2 -17 -3 3 -4 -4 -10 -15 -13 -17 -4
-18 -2 -9 14 11 21 27 24 49 8z m283 -19 c7 0 6 -5 -3 -10 -11 -8 -9 -9 11 -5
23 6 30 0 67 -58 23 -35 42 -68 42 -74 0 -11 -56 -37 -115 -53 -77 -19 -75
-21 -75 86 0 91 1 96 20 91 11 -3 18 -1 15 3 -3 5 1 11 7 14 7 3 0 3 -17 0
-24 -3 -26 -3 -10 5 11 5 26 8 33 5 8 -2 19 -4 25 -4z m-290 -10 c-28 -12 -30
-20 -3 -13 19 5 20 0 20 -91 0 -85 -2 -96 -17 -96 -21 0 -87 17 -124 31 l-27
10 42 73 c31 56 48 76 71 83 38 13 68 15 38 3z m481 -52 c15 -24 -13 -53 -43
-43 -23 7 -28 34 -9 53 16 16 38 12 52 -10z m-640 -20 c16 -27 -14 -54 -43
-39 -21 11 -28 41 -14 55 12 12 45 2 57 -16z"/>
<path d="M3475 8391 c-3 -5 -2 -12 3 -15 5 -3 9 1 9 9 0 17 -3 19 -12 6z"/>
<path d="M3586 8257 c3 -10 9 -15 12 -12 3 3 0 11 -7 18 -10 9 -11 8 -5 -6z"/>
<path d="M3576 8214 c-3 -9 -4 -19 -1 -22 3 -3 5 1 6 9 0 8 4 6 9 -6 6 -13 9
-15 9 -5 0 8 -3 21 -8 28 -6 11 -10 10 -15 -4z"/>
<path d="M3606 8217 c3 -10 9 -15 12 -12 3 3 0 11 -7 18 -10 9 -11 8 -5 -6z"/>
<path d="M3278 8263 c-7 -14 -3 -33 6 -33 12 -1 17 28 6 35 -5 3 -10 2 -12 -2z"/>
<path d="M3331 8145 c1 -19 18 -51 18 -35 0 8 -4 22 -9 30 -5 8 -9 11 -9 5z"/>
<path d="M2916 8113 c-9 -41 2 -102 15 -82 11 17 10 67 0 94 -7 17 -9 16 -15
-12z m11 -50 c-3 -10 -5 -2 -5 17 0 19 2 27 5 18 2 -10 2 -26 0 -35z"/>
<path d="M3378 7913 c-6 -12 -4 -26 9 -48 11 -18 11 -17 9 12 -2 33 -11 50
-18 36z"/>
<path d="M3413 7904 c0 -7 4 -11 9 -8 10 6 11 -10 1 -20 -19 -19 -10 -34 19
-29 19 3 28 1 24 -6 -4 -5 -2 -12 3 -15 5 -4 12 -2 16 4 4 6 12 7 18 3 8 -4 8
-1 -1 9 -7 9 -11 20 -10 24 2 5 0 9 -3 9 -4 0 -17 9 -28 19 -27 24 -48 29 -48
10z m69 -29 c2 3 4 -4 3 -15 -1 -11 -5 -23 -9 -27 -4 -5 -6 -1 -4 7 2 9 -5 16
-17 16 -11 1 -24 2 -29 3 -5 1 -3 8 4 16 6 8 8 20 4 27 -4 7 4 3 18 -10 13
-12 27 -20 30 -17z"/>
<path d="M3622 7855 c0 -16 2 -22 5 -12 2 9 2 23 0 30 -3 6 -5 -1 -5 -18z"/>
<path d="M3611 7804 c0 -11 3 -14 6 -6 3 7 2 16 -1 19 -3 4 -6 -2 -5 -13z"/>
<path d="M3463 7735 c0 -8 4 -12 9 -9 5 3 6 10 3 15 -9 13 -12 11 -12 -6z"/>
<path d="M3576 7654 c-4 -14 -5 -28 -3 -31 3 -2 8 8 11 23 4 14 5 28 3 31 -3
2 -8 -8 -11 -23z"/>
<path d="M2919 7928 c-5 -18 -6 -38 -1 -34 7 8 12 36 6 36 -2 0 -4 -1 -5 -2z"/>
<path d="M2820 7965 c0 -5 4 -16 9 -23 6 -11 10 -10 15 4 3 9 4 19 1 22 -3 3
-5 -1 -5 -9 0 -11 -2 -11 -10 1 -5 8 -10 11 -10 5z"/>
<path d="M2835 7887 c1 -12 -2 -27 -6 -33 -5 -6 -4 -11 4 -11 13 0 18 49 6 61
-3 3 -5 -4 -4 -17z"/>
<path d="M2864 7860 c0 -16 3 -27 6 -25 8 5 6 42 -1 50 -3 2 -5 -8 -5 -25z"/>
<path d="M2819 7798 c-6 -27 -5 -39 4 -45 7 -3 9 -3 5 2 -4 4 -3 14 3 21 7 8
7 14 -1 19 -5 3 -10 5 -11 3z"/>
<path d="M3007 7849 c7 -7 15 -10 18 -7 3 3 -2 9 -12 12 -14 6 -15 5 -6 -5z"/>
<path d="M3279 7916 c0 -1 -2 -8 -4 -17 -2 -11 3 -16 13 -15 19 3 25 33 6 33
-8 0 -14 -1 -15 -1z"/>
<path d="M3259 7861 c11 -7 11 -9 0 -14 -8 -3 -9 -6 -3 -6 6 -1 16 5 22 12 8
10 6 13 -11 14 -15 2 -18 0 -8 -6z"/>
<path d="M3484 7776 c4 -29 22 -38 37 -19 7 10 9 15 4 10 -4 -4 -16 0 -26 9
-16 14 -17 14 -15 0z"/>
<path d="M1434 8185 c-357 -66 -624 -391 -624 -760 0 -161 39 -293 126 -427
105 -163 261 -273 458 -323 89 -22 91 -24 94 -54 3 -30 4 -31 25 -16 13 9 43
15 74 15 48 0 57 -4 92 -39 46 -46 56 -89 33 -146 -14 -33 -17 -94 -19 -352
l-4 -313 931 0 930 0 0 670 0 670 -146 0 -146 0 6 -122 c3 -68 8 -144 11 -169
21 -145 -177 -210 -255 -84 -18 30 -21 44 -15 88 4 28 9 121 11 206 5 145 4
153 -13 146 -10 -4 -40 -15 -68 -25 -27 -10 -187 -70 -355 -134 -168 -65 -334
-129 -370 -142 -36 -14 -75 -29 -88 -34 -13 -6 -25 -10 -28 -10 -3 0 22 30 56
67 117 128 180 266 200 439 41 357 -161 690 -495 814 -132 49 -279 61 -421 35z
m307 -92 c7 -7 -2 -41 -34 -119 l-45 -109 -58 3 c-55 3 -129 -11 -198 -37 -25
-10 -27 -13 -15 -28 12 -13 9 -13 -15 2 -15 10 -62 57 -102 104 -84 97 -85 93
14 137 114 52 178 64 314 61 75 -2 132 -7 139 -14z m83 -49 c20 -19 20 -28 1
-44 -30 -25 -70 15 -45 45 16 19 25 19 44 -1z m121 -35 c126 -80 202 -167 267
-305 22 -47 38 -88 35 -90 -9 -10 -175 -34 -219 -32 -36 1 -45 5 -40 16 4 11
1 13 -8 7 -9 -5 -11 -4 -6 4 7 10 -29 81 -40 81 -3 0 -3 -4 1 -9 3 -5 0 -13
-7 -17 -7 -4 -10 -4 -6 1 4 4 2 15 -5 23 -9 13 -9 14 1 8 6 -4 12 -3 12 2 0
16 -91 94 -104 89 -7 -3 -13 4 -14 17 -2 24 68 236 78 236 3 0 28 -14 55 -31z
m-750 -73 c11 -8 16 -19 12 -30 -9 -24 -36 -31 -54 -14 -12 12 -13 20 -4 37
14 25 21 26 46 7z m-84 -58 c10 -13 44 -55 75 -95 l56 -72 -37 -62 c-21 -34
-38 -74 -39 -89 -1 -16 -4 -26 -8 -23 -5 2 -8 -11 -9 -29 -2 -77 -6 -81 -114
-105 -144 -32 -135 -35 -135 46 0 91 13 157 50 244 27 64 121 207 136 207 3 0
14 -10 25 -22z m650 2 c24 -13 25 -53 2 -71 -15 -11 -16 -11 -5 1 10 12 5 17
-29 30 -38 15 -40 18 -24 33 19 20 29 21 56 7z m-143 -27 c-15 -2 -42 -2 -60
0 -18 2 -6 4 27 4 33 0 48 -2 33 -4z m-111 -9 c-3 -3 -12 -4 -19 -1 -8 3 -5 6
6 6 11 1 17 -2 13 -5z m53 -8 c0 -2 -11 -6 -25 -8 -13 -3 -22 -1 -19 3 5 9 44
13 44 5z m73 -3 c-7 -2 -19 -2 -25 0 -7 3 -2 5 12 5 14 0 19 -2 13 -5z m-40
-20 c-7 -2 -19 -2 -25 0 -7 3 -2 5 12 5 14 0 19 -2 13 -5z m-259 -11 c2 -4
-13 -22 -35 -40 l-38 -33 -7 26 c-4 15 -1 32 6 40 13 16 65 21 74 7z m165 -11
c7 -5 9 -11 5 -14 -5 -3 -15 1 -22 9 -14 16 -5 18 17 5z m114 2 c-13 -2 -35
-2 -50 0 -16 2 -5 4 22 4 28 0 40 -2 28 -4z m-63 -23 c-8 -5 -22 -9 -30 -9
-10 0 -8 3 5 9 27 12 43 12 25 0z m286 -26 c2 -12 -1 -13 -11 -4 -8 7 -20 9
-27 5 -7 -4 -4 1 6 9 21 17 29 14 32 -10z m-238 9 c-10 -2 -26 -2 -35 0 -10 3
-2 5 17 5 19 0 27 -2 18 -5z m2 -17 c0 -2 -13 -6 -29 -8 -17 -2 -28 -1 -25 4
5 8 54 12 54 4z m235 -44 c-12 -13 -35 -9 -47 6 -12 15 -11 16 5 3 16 -13 22
-8 18 13 -1 5 5 3 14 -4 8 -7 13 -15 10 -18z m-335 8 c8 -5 11 -10 5 -10 -5 0
-17 5 -25 10 -8 5 -10 10 -5 10 6 0 17 -5 25 -10z m47 4 c-3 -3 -12 -4 -19 -1
-8 3 -5 6 6 6 11 1 17 -2 13 -5z m-300 -27 c0 -8 -6 -14 -14 -14 -9 0 -10 4
-2 14 6 7 12 13 14 13 1 0 2 -6 2 -13z m318 -7 c-3 -5 -12 -10 -18 -10 -7 0
-6 4 3 10 19 12 23 12 15 0z m62 -6 c-3 -3 -12 -4 -19 -1 -8 3 -5 6 6 6 11 1
17 -2 13 -5z m219 -28 c0 -28 -3 -33 -13 -24 -8 6 -11 13 -8 16 3 3 -1 12 -8
20 -8 11 -8 14 0 9 6 -4 14 -3 18 3 10 15 11 13 11 -24z m64 14 c14 -7 27 -14
30 -14 10 -2 5 -33 -6 -33 -7 0 -10 6 -7 13 5 12 -30 38 -39 28 -3 -2 -11 2
-17 10 -15 18 2 16 39 -4z m-626 -11 c-3 -5 -10 -7 -15 -3 -5 3 -7 10 -3 15 3
5 10 7 15 3 5 -3 7 -10 3 -15z m428 3 c-7 -2 -9 -9 -5 -15 3 -7 2 -8 -2 -4
-16 14 -14 36 3 29 10 -4 12 -7 4 -10z m83 -2 c10 -11 16 -20 13 -20 -3 0 -13
9 -23 20 -10 11 -16 20 -13 20 3 0 13 -9 23 -20z m-379 -9 c-10 -11 -13 -21
-7 -25 5 -4 12 -2 16 4 4 6 11 8 16 4 6 -4 6 -11 -2 -20 -6 -7 -15 -12 -19 -9
-12 8 -33 -23 -24 -36 4 -7 3 -9 -4 -5 -16 10 -8 62 13 86 10 11 20 20 23 20
3 0 -3 -9 -12 -19z m-182 1 c3 -5 -1 -9 -9 -9 -8 0 -12 4 -9 9 3 4 7 8 9 8 2
0 6 -4 9 -8z m373 -8 c-3 -3 -12 -4 -19 -1 -8 3 -5 6 6 6 11 1 17 -2 13 -5z
m61 -10 c5 3 9 -1 9 -8 0 -10 -7 -11 -28 -3 -15 6 -25 15 -22 19 2 5 11 4 18
-2 8 -7 18 -9 23 -6z m229 0 c0 -10 -10 -11 -35 -5 -2 1 -1 5 2 9 8 13 33 10
33 -4z m-598 -7 c9 4 13 3 10 -1 -13 -14 -46 -14 -46 0 0 9 4 11 10 5 5 -5 17
-7 26 -4z m490 -1 c11 -14 6 -15 -27 -7 -4 1 8 21 12 21 2 0 9 -6 15 -14z
m-304 -5 c3 -5 2 -12 -3 -15 -5 -3 -9 1 -9 9 0 17 3 19 12 6z m231 -18 c-10
-11 -19 -7 -22 10 -2 15 0 16 12 6 8 -6 12 -14 10 -16z m119 8 c3 -5 2 -12 -3
-15 -5 -3 -9 1 -9 9 0 17 3 19 12 6z m61 -13 c3 -4 -1 -5 -10 -4 -8 1 -18 5
-22 8 -3 4 1 5 10 4 8 -1 18 -5 22 -8z m50 0 c3 -4 -1 -5 -10 -4 -8 1 -18 5
-22 8 -3 4 1 5 10 4 8 -1 18 -5 22 -8z m-662 -30 c-4 -14 -2 -18 5 -14 7 5 9
1 5 -9 -7 -18 -7 -18 -24 14 -10 19 -10 22 1 16 9 -6 11 -3 6 9 -4 10 -3 15 4
11 5 -4 7 -16 3 -27z m50 24 c3 -5 -1 -9 -9 -9 -8 0 -12 4 -9 9 3 4 7 8 9 8 2
0 6 -4 9 -8z m104 -22 c-26 -36 -29 -37 -24 -7 1 12 8 22 14 22 6 0 14 3 18 8
17 17 13 5 -8 -23z m798 6 c15 -12 17 -18 8 -33 -15 -24 -58 -24 -62 0 -4 18
14 47 27 47 4 0 16 -6 27 -14z m-1008 -31 c-3 -3 -9 2 -12 12 -6 14 -5 15 5 6
7 -7 10 -15 7 -18z m826 9 c9 -8 16 -24 16 -34 0 -19 -25 -50 -41 -50 -5 0 -9
12 -9 28 0 15 -4 34 -9 42 -20 30 16 42 43 14z m-851 -19 c-3 -9 -8 -14 -10
-11 -3 3 -2 9 2 15 9 16 15 13 8 -4z m157 0 c0 -12 -19 -12 -23 0 -4 9 -1 12
9 8 7 -3 14 -7 14 -8z m425 6 c-9 -8 -36 -10 -30 -2 2 4 11 8 20 8 8 0 13 -3
10 -6z m225 -46 c0 -17 -2 -17 -10 -5 -5 8 -10 11 -10 5 0 -13 -20 17 -20 30
0 6 5 3 10 -5 8 -12 10 -12 10 5 0 17 2 17 10 5 5 -8 10 -24 10 -35z m-170 20
c4 3 6 -5 2 -17 -5 -21 -6 -21 -13 -2 -4 11 -8 13 -8 5 -1 -8 -3 -12 -6 -9 -3
3 -2 13 2 24 4 11 8 13 11 6 2 -7 7 -10 12 -7z m-629 -18 c-10 -9 -11 -8 -5 6
3 10 9 15 12 12 3 -3 0 -11 -7 -18z m66 1 c-3 -8 -6 -5 -6 6 -1 11 2 17 5 13
3 -3 4 -12 1 -19z m362 -2 c14 -15 21 -33 19 -50 -4 -38 -19 -36 -32 4 -7 23
-19 36 -35 40 -36 8 -39 30 -4 30 18 0 38 -9 52 -24z m141 13 c0 8 2 12 5 10
2 -3 0 -18 -4 -35 -5 -16 -10 -21 -10 -12 -1 9 -4 25 -7 35 -5 15 -4 15 5 3 9
-12 11 -13 11 -1z m-593 -36 c-3 -10 -5 -4 -5 12 0 17 2 24 5 18 2 -7 2 -21 0
-30z m67 12 c-4 -8 -8 -15 -10 -15 -2 0 -4 7 -4 15 0 8 4 15 10 15 5 0 7 -7 4
-15z m-87 -17 c-3 -8 -6 -5 -6 6 -1 11 2 17 5 13 3 -3 4 -12 1 -19z m1103 -45
c-1 -145 -63 -316 -152 -416 l-43 -48 -74 94 c-41 52 -74 99 -74 103 0 5 -7
14 -15 20 -12 9 -12 13 -2 19 8 5 11 4 6 -3 -8 -13 20 -10 35 5 7 7 3 17 -10
34 -11 13 -21 20 -22 14 -1 -5 -2 -16 -3 -24 0 -8 -7 -16 -14 -18 -16 -6 -11
29 7 51 11 13 16 14 29 4 13 -11 14 -11 8 1 -6 9 -5 12 5 9 8 -3 13 -16 12
-29 -2 -20 1 -18 16 11 12 22 18 49 16 75 -2 22 0 58 5 80 l9 40 -2 -47 c-1
-25 1 -44 6 -41 4 2 7 19 7 36 0 18 4 37 8 43 6 10 178 50 225 53 15 1 17 -8
17 -66z m-915 22 c0 -19 -3 -35 -7 -35 -3 0 -9 -8 -12 -17 -2 -10 -2 0 0 22 9
71 19 86 19 30z m185 -1 c3 -15 14 -33 25 -39 42 -21 48 -27 35 -35 -17 -10
-57 0 -73 19 -14 15 -21 46 -18 79 2 24 26 6 31 -24z m287 -11 c-3 -10 -5 -4
-5 12 0 17 2 24 5 18 2 -7 2 -21 0 -30z m-500 5 c-3 -8 -6 -5 -6 6 -1 11 2 17
5 13 3 -3 4 -12 1 -19z m60 0 c-3 -8 -6 -5 -6 6 -1 11 2 17 5 13 3 -3 4 -12 1
-19z m413 -25 c-11 -17 -11 -17 -6 0 3 10 7 26 7 35 1 15 2 15 6 0 2 -10 -1
-25 -7 -35z m-23 -5 c-3 -7 -5 -2 -5 12 0 14 2 19 5 13 2 -7 2 -19 0 -25z
m189 -20 c-8 -52 0 -46 12 8 8 33 9 28 8 -38 -1 -43 -5 -74 -10 -70 -5 3 -6
-2 -3 -12 4 -10 3 -15 -4 -11 -5 4 -7 16 -3 28 6 20 5 20 -14 -3 -23 -27 -29
-21 -11 12 8 16 8 19 -1 13 -9 -6 -10 -1 -4 16 5 13 8 40 7 59 -1 24 1 30 7
20 8 -13 10 -12 10 3 0 9 3 17 6 17 4 0 4 -19 0 -42z m-27 -18 c0 -8 -5 -4
-10 10 -10 24 -11 24 -25 6 -12 -17 -14 -17 -14 -3 0 9 8 20 18 26 18 10 31
-6 31 -39z m-795 24 c3 -9 6 -27 6 -40 0 -17 4 -23 12 -18 7 4 8 3 4 -4 -9
-15 -39 -15 -54 0 -15 15 -15 51 0 66 16 16 25 15 32 -4z m173 -6 c-3 -8 -6
-5 -6 6 -1 11 2 17 5 13 3 -3 4 -12 1 -19z m572 -38 c1 -13 0 -13 -9 0 -5 8
-9 24 -9 35 l0 20 9 -20 c5 -11 9 -27 9 -35z m-21 6 c7 -16 10 -31 7 -34 -3
-3 -5 0 -5 7 0 9 -4 8 -15 -3 -8 -8 -15 -18 -15 -22 0 -3 7 -1 15 6 18 15 20
-1 3 -19 -11 -11 -10 -12 1 -6 11 6 13 4 8 -7 -4 -11 -1 -15 11 -13 9 2 21 4
25 4 5 1 5 6 1 13 -13 21 -13 52 1 83 8 18 14 23 14 13 1 -9 4 -25 7 -35 4
-13 3 -14 -4 -5 -7 11 -10 11 -15 -1 -3 -9 1 -18 9 -21 20 -8 18 -20 -11 -54
-13 -16 -21 -33 -17 -37 4 -5 1 -5 -6 -1 -7 4 -10 12 -7 17 4 5 2 9 -3 9 -13
0 -75 110 -68 118 3 3 6 -1 6 -9 0 -12 2 -11 11 1 8 12 9 9 4 -10 -5 -20 -4
-22 5 -10 10 12 11 12 5 -5 -4 -14 -3 -17 5 -9 7 7 8 19 1 37 -15 38 10 31 27
-7z m-894 -2 c19 -19 4 -57 -21 -52 -26 5 -39 34 -24 52 17 20 26 20 45 0z
m440 0 c3 -8 2 -12 -4 -9 -6 3 -10 10 -10 16 0 14 7 11 14 -7z m372 -66 c-5
-60 -94 -103 -103 -50 -2 14 1 21 7 17 5 -3 10 -1 10 6 0 7 3 9 7 6 9 -10 44
24 37 35 -3 5 -15 1 -27 -9 -14 -12 -12 -6 8 20 26 35 29 36 46 21 11 -9 16
-27 15 -46z m102 6 c0 -17 -3 -22 -8 -13 -5 6 -6 18 -3 26 8 19 11 16 11 -13z
m-604 -26 c-9 -14 -23 2 -17 18 4 12 8 13 14 3 4 -7 5 -17 3 -21z m113 15 c0
-9 -4 -10 -14 -2 -7 6 -13 12 -13 14 0 1 6 2 13 2 8 0 14 -6 14 -14z m75 -1
c-7 -2 -10 -7 -8 -11 3 -4 -1 -8 -9 -8 -10 0 -12 4 -5 12 5 7 7 15 3 19 -4 4
1 4 12 0 11 -5 14 -9 7 -12z m-279 -45 c39 -74 136 -175 157 -162 14 9 5 -36
-31 -142 -18 -57 -39 -103 -45 -103 -22 0 -128 78 -184 134 -62 63 -120 153
-150 234 -11 30 -19 56 -18 57 6 5 184 33 213 34 26 1 33 -5 58 -52z m1 37 c3
-8 2 -12 -4 -9 -6 3 -10 10 -10 16 0 14 7 11 14 -7z m39 -5 c-8 -8 -13 -7 -18
2 -5 8 -4 10 3 5 7 -4 12 -2 12 5 0 7 3 9 7 6 4 -4 2 -12 -4 -18z m113 -12 c3
-21 1 -21 -20 2 -17 19 -17 19 0 17 9 -2 18 -10 20 -19z m-51 -14 c-2 -10 -4
-19 -4 -21 -1 -2 -6 0 -11 3 -8 5 -7 11 1 21 15 18 18 18 14 -3z m-55 1 c0 -8
-19 -13 -24 -6 -3 5 1 9 9 9 8 0 15 -2 15 -3z m227 -13 c0 -11 -7 -17 -14 -14
-9 4 -9 8 0 19 16 17 16 17 14 -5z m475 -17 c2 -7 -1 -14 -6 -15 -5 -2 -10 6
-11 19 -2 22 10 19 17 -4z m-604 7 c-2 -18 4 -22 16 -12 11 9 16 9 22 0 4 -7
3 -9 -3 -6 -14 9 -31 -14 -28 -36 2 -9 0 -15 -5 -12 -4 3 -13 -2 -20 -10 -12
-14 -7 -20 15 -15 5 1 6 -2 2 -6 -14 -14 -36 -12 -49 4 -8 10 -9 13 -1 9 11
-7 26 7 29 26 1 4 3 9 4 12 6 13 6 31 -2 41 -4 6 -2 11 7 11 7 0 14 -3 13 -6z
m-63 -11 c4 -6 12 -7 18 -3 8 4 7 1 -1 -9 -9 -11 -10 -18 -2 -23 6 -3 8 -11 4
-16 -4 -6 -11 -6 -20 2 -10 8 -11 15 -4 25 8 9 6 15 -7 23 -10 6 -13 11 -6 11
6 0 15 -5 18 -10z m421 -49 c-3 -5 4 -11 15 -14 12 -3 18 -10 14 -16 -3 -6 -2
-11 4 -11 13 0 119 -105 188 -186 40 -47 50 -64 40 -72 -41 -33 -225 -102
-273 -102 -3 0 -4 81 -3 180 1 99 6 180 11 180 5 0 7 -3 5 -7 -3 -5 7 -9 21
-10 l27 -1 -24 13 c-18 9 -20 14 -10 19 8 3 4 3 -8 0 -18 -4 -23 -1 -23 15 0
12 5 21 11 21 5 0 8 -4 5 -9z m219 -49 c7 -19 -12 -50 -35 -57 -20 -6 -56 12
-45 23 3 3 0 11 -6 18 -14 17 7 29 25 15 10 -8 16 -8 25 3 9 10 8 13 -6 13
-37 0 -47 5 -23 12 26 8 56 -5 65 -27z m-539 11 c-4 -26 -22 -34 -22 -10 0 13
5 24 12 24 6 0 11 -6 10 -14z m55 -95 c40 -12 51 -31 23 -42 -35 -13 -74 7
-74 40 0 17 2 17 51 2z m584 -54 c18 -18 16 -33 -7 -47 -35 -22 -66 21 -36 51
16 16 23 15 43 -4z m-525 -115 l0 -101 -32 7 c-44 10 -44 10 -29 53 35 96 53
142 57 142 2 0 4 -45 4 -101z m-104 7 c15 -12 17 -18 8 -33 -14 -23 -43 -23
-57 -1 -8 12 -7 21 2 32 16 20 22 20 47 2z m2053 0 c27 -14 51 -53 51 -82 0
-27 -28 -70 -54 -82 -33 -15 -33 -44 -1 -86 32 -42 40 -85 25 -130 -14 -42
-67 -92 -109 -101 -61 -13 -136 32 -160 98 -12 31 -36 35 -78 10 -55 -31 -121
6 -130 72 -13 104 129 145 174 50 20 -43 33 -44 55 -5 18 31 70 60 108 60 26
0 27 33 0 67 -33 42 -19 101 31 129 31 17 54 17 88 0z m-576 -81 c59 -40 67
-73 67 -262 0 -125 3 -163 13 -162 6 1 60 1 120 0 l107 -1 0 -109 0 -110 147
0 c96 0 149 -3 151 -10 3 -8 -45 -11 -147 -11 -128 0 -151 -2 -151 -15 0 -13
23 -15 150 -15 93 0 150 -4 150 -10 0 -6 -57 -10 -150 -10 -143 0 -150 -1
-150 -20 0 -19 7 -20 150 -20 93 0 150 -4 150 -10 0 -6 -57 -10 -150 -10 -127
0 -150 -2 -150 -15 0 -13 23 -15 150 -15 93 0 150 -4 150 -10 0 -6 -57 -10
-150 -10 -143 0 -150 -1 -150 -20 0 -19 7 -20 150 -20 93 0 150 -4 150 -10 0
-6 -56 -10 -149 -10 -148 0 -150 0 -153 -22 l-3 -23 -707 -3 -707 -2 -3 227
c-2 126 -2 240 0 255 l3 28 177 2 177 3 0 165 c0 134 3 171 17 195 18 33 54
69 78 78 8 3 152 6 320 6 l305 1 38 -25z m452 -430 c30 -29 32 -55 7 -85 -26
-32 -70 -30 -99 5 -27 31 -24 59 9 88 28 24 55 21 83 -8z m143 9 c32 -22 30
-76 -5 -103 -30 -24 -58 -20 -85 11 -24 27 -23 57 4 85 25 27 54 29 86 7z"/>
<path d="M1393 7595 c0 -8 4 -12 9 -9 5 3 6 10 3 15 -9 13 -12 11 -12 -6z"/>
<path d="M1747 7305 c-4 -8 -2 -17 3 -20 6 -4 10 -1 10 5 0 6 5 8 13 4 8 -5 8
-2 -2 9 -16 21 -17 21 -24 2z"/>
<path d="M1726 7243 c-15 -12 -23 -23 -19 -23 4 0 1 -5 -7 -10 -11 -8 -8 -9
14 -6 16 3 31 8 35 12 3 4 -2 4 -12 1 -13 -5 -17 -3 -15 5 3 7 10 14 16 14 7
1 15 3 20 4 4 1 10 2 13 2 3 -1 6 5 6 12 0 19 -21 15 -51 -11z"/>
<path d="M1699 7061 c11 -7 11 -10 0 -14 -11 -4 -11 -6 -1 -6 7 -1 10 -6 6
-12 -4 -7 1 -7 16 1 12 6 24 9 27 7 3 -3 -8 -12 -24 -21 -15 -8 -23 -15 -18
-16 6 0 23 9 39 19 17 11 35 17 40 14 6 -3 3 2 -6 12 -9 10 -33 19 -54 21 -23
1 -33 -1 -25 -5z m59 -9 c8 -6 2 -9 -18 -9 -20 0 -26 3 -18 9 7 4 15 8 18 8 3
0 11 -4 18 -8z"/>
<path d="M1730 6900 c19 -11 40 -19 45 -19 6 0 -6 8 -25 19 -19 11 -39 19 -45
19 -5 0 6 -8 25 -19z"/>
<path d="M1830 6856 c0 -3 14 -12 30 -21 17 -9 30 -13 30 -11 0 3 -13 12 -30
21 -16 9 -30 13 -30 11z"/>
<path d="M3371 6804 c-38 -27 -22 -84 25 -84 29 0 46 23 42 56 -4 34 -37 48
-67 28z"/>
<path d="M3273 6615 c-17 -7 -39 -25 -48 -38 -35 -54 -12 -152 42 -176 13 -6
43 -11 67 -11 35 0 48 6 76 35 28 29 33 42 33 79 0 55 -23 93 -68 112 -42 17
-61 17 -102 -1z m114 -64 c7 -9 13 -30 13 -48 0 -36 -38 -73 -75 -73 -37 0
-75 37 -75 74 0 41 17 64 55 75 32 9 62 -1 82 -28z"/>
<path d="M3286 6544 c-21 -21 -20 -57 2 -77 24 -22 55 -21 75 1 34 37 11 92
-38 92 -13 0 -31 -7 -39 -16z m62 -37 c4 -20 -25 -34 -40 -19 -15 15 -1 44 19
40 10 -2 19 -11 21 -21z"/>
<path d="M3040 6590 c-24 -24 -25 -43 -4 -64 18 -19 55 -21 72 -4 18 18 15 53
-6 71 -24 22 -38 21 -62 -3z"/>
<path d="M2169 6731 c-33 -33 -39 -45 -39 -82 -1 -24 -1 -192 0 -373 0 -368 1
-370 70 -407 32 -17 61 -19 321 -19 416 0 389 -32 389 463 0 381 -2 396 -58
436 -29 20 -39 21 -337 21 l-307 0 -39 -39z m144 -48 c33 -38 22 -94 -24 -113
-27 -11 -33 -11 -57 7 -33 25 -41 76 -16 104 22 24 76 25 97 2z m507 -3 c27
-27 25 -66 -5 -96 -28 -28 -64 -27 -96 2 -43 38 -9 114 51 114 17 0 39 -9 50
-20z m-68 -209 c42 -16 88 -86 88 -133 0 -43 -11 -71 -44 -106 -24 -27 -78
-52 -110 -52 -41 1 -106 38 -127 75 -15 25 -28 35 -46 35 -22 0 -24 3 -21 43
2 35 7 43 25 45 13 2 32 19 44 39 39 63 114 84 191 54z m-440 -428 c25 -30 29
-53 13 -83 -19 -36 -59 -49 -94 -29 -33 19 -41 81 -15 110 22 24 76 25 96 2z
m508 -3 c27 -27 25 -66 -5 -95 -30 -31 -62 -32 -92 -3 -46 43 -16 118 47 118
17 0 39 -9 50 -20z"/>
<path d="M2230 6665 c-11 -13 -6 -15 35 -15 41 0 46 2 35 15 -7 8 -23 15 -35
15 -12 0 -28 -7 -35 -15z"/>
<path d="M2217 6614 c14 -37 93 -36 93 1 0 11 -13 15 -50 15 -41 0 -48 -3 -43
-16z"/>
<path d="M2730 6665 c-11 -13 -5 -15 40 -15 45 0 51 2 40 15 -7 8 -25 15 -40
15 -15 0 -33 -7 -40 -15z"/>
<path d="M2720 6620 c0 -5 11 -17 25 -26 23 -15 27 -15 50 0 38 25 30 36 -25
36 -27 0 -50 -4 -50 -10z"/>
<path d="M2634 6456 c-17 -7 -41 -27 -53 -42 l-23 -29 117 -3 c65 -1 120 0
123 3 9 8 -10 36 -39 57 -33 25 -87 31 -125 14z"/>
<path d="M2510 6335 l0 -25 155 0 155 0 0 25 0 25 -155 0 -155 0 0 -25z"/>
<path d="M2581 6259 c55 -77 175 -71 219 12 10 18 6 19 -115 19 l-126 0 22
-31z"/>
<path d="M2232 6028 c-21 -21 -13 -28 33 -28 25 0 45 4 45 8 0 15 -24 32 -45
32 -12 0 -26 -5 -33 -12z"/>
<path d="M2220 5970 c0 -19 46 -33 69 -21 34 19 24 31 -24 31 -25 0 -45 -5
-45 -10z"/>
<path d="M2730 6020 c-10 -19 -8 -20 40 -20 51 0 60 6 38 28 -19 19 -66 15
-78 -8z"/>
<path d="M2735 5960 c10 -11 26 -20 35 -20 9 0 25 9 35 20 18 20 17 20 -35 20
-52 0 -53 0 -35 -20z"/>
<path d="M1766 6298 c1 -13 3 -119 3 -235 l1 -213 207 0 207 0 -33 34 c-28 29
-34 44 -43 112 -5 44 -8 134 -6 202 l3 122 -171 0 -171 0 3 -22z"/>
<path d="M2930 6141 c0 -191 -5 -219 -48 -264 l-26 -28 143 3 144 3 1 232 1
233 -107 0 -108 0 0 -179z"/>
<path d="M3248 6329 c-21 -12 -24 -49 -6 -67 39 -39 100 17 63 58 -20 22 -32
24 -57 9z"/>
<path d="M3387 6322 c-30 -33 -15 -72 28 -72 44 0 63 60 26 80 -27 14 -35 13
-54 -8z"/>
<path d="M3431 7283 c-10 -26 -10 -27 4 -9 8 11 15 23 15 28 0 15 -7 8 -19
-19z"/>
<path d="M5655 7226 c-44 -18 -148 -61 -231 -95 l-150 -61 -152 0 -152 0 0
-45 0 -45 -205 0 -205 0 0 25 0 25 -140 0 -140 0 0 -49 0 -50 -285 -1 -285 -1
0 116 0 115 -40 0 c-40 0 -40 0 -40 39 l0 40 -107 3 c-60 2 -143 2 -185 0
l-78 -3 0 -54 0 -55 155 0 155 0 0 -690 0 -690 -950 0 -950 0 0 306 c0 288 -1
306 -17 299 -41 -17 -100 -17 -131 -1 l-32 17 0 -75 0 -75 -32 -3 c-30 -3 -33
-6 -33 -38 0 -32 3 -35 33 -38 23 -2 32 -8 32 -22 0 -14 -9 -20 -32 -22 -30
-3 -33 -6 -36 -40 -3 -37 -3 -38 32 -38 32 0 36 -3 36 -25 0 -22 -4 -25 -36
-25 -35 0 -35 -1 -32 -37 3 -35 6 -38 36 -41 l32 -3 0 -135 0 -134 70 0 70 0
0 -56 0 -55 320 3 321 3 -3 -54 -3 -54 -45 -13 c-25 -8 -124 -35 -220 -60 -96
-25 -206 -54 -245 -65 -62 -17 -109 -19 -417 -19 -342 0 -347 0 -362 -21 -8
-12 -12 -29 -9 -38 14 -40 25 -41 369 -41 l333 0 153 41 c84 22 218 58 297 80
80 21 147 35 150 30 3 -5 17 -11 31 -12 19 -3 25 -10 25 -29 0 -20 -6 -26 -27
-28 -23 -3 -28 -8 -28 -32 0 -24 5 -28 32 -33 25 -4 46 3 89 29 71 42 143 58
239 51 72 -5 149 -32 200 -71 10 -8 84 -10 243 -8 l227 3 0 29 0 30 -220 0
-220 0 0 30 0 30 220 0 220 0 0 109 0 109 31 6 c17 3 56 6 85 6 l54 0 0 50 0
50 80 0 79 0 3 78 3 77 33 -3 c30 -3 32 -1 32 27 0 29 -3 31 -35 31 l-35 0 0
145 0 145 40 0 40 0 0 115 0 115 40 0 40 0 0 -205 0 -205 50 0 50 0 0 205 0
205 195 -1 195 -1 0 -49 0 -49 140 0 140 0 0 25 c0 23 4 25 40 25 l40 0 0
-180 0 -180 50 0 50 0 0 180 0 181 118 -3 117 -3 0 -45 0 -45 170 -5 170 -6
210 -87 c115 -48 213 -87 217 -87 5 0 8 279 8 620 0 341 -3 620 -7 619 -5 0
-44 -15 -88 -33z m-1115 -251 c0 -12 -19 -15 -115 -15 -96 0 -115 3 -115 15 0
12 19 15 115 15 96 0 115 -3 115 -15z m0 -75 l0 -30 -115 0 -115 0 0 30 0 30
115 0 115 0 0 -30z m-312 3 c-21 -2 -57 -2 -80 0 -24 2 -7 4 37 4 44 0 63 -2
43 -4z m32 -28 c0 -12 -15 -15 -75 -15 -69 0 -86 6 -68 23 3 4 37 7 75 7 54 0
68 -3 68 -15z m0 -55 c0 -18 -7 -20 -75 -20 -68 0 -75 2 -75 20 0 18 7 20 75
20 68 0 75 -2 75 -20z m280 -30 l0 -40 -115 0 -115 0 0 40 0 40 115 0 115 0 0
-40z m-280 -45 c0 -24 -2 -25 -75 -25 -73 0 -75 1 -75 25 0 24 2 25 75 25 73
0 75 -1 75 -25z m278 -107 l3 -48 -115 0 -116 0 0 50 0 51 113 -3 112 -3 3
-47z m-276 7 c3 -13 3 -27 0 -30 -3 -3 -38 -5 -79 -5 l-73 0 0 30 0 30 74 0
c70 0 74 -1 78 -25z m-2 -94 c0 -5 3 -16 6 -25 5 -14 -5 -16 -75 -16 -80 0
-81 0 -81 25 0 24 2 25 75 25 41 0 75 -4 75 -9z m280 -61 l0 -40 -115 0 -115
0 0 40 0 40 115 0 115 0 0 -40z m-280 -30 c0 -18 -7 -20 -75 -20 -68 0 -75 2
-75 20 0 18 7 20 75 20 68 0 75 -2 75 -20z m5 -55 c0 -6 -34 -11 -77 -13 -66
-2 -78 0 -78 13 0 13 12 15 78 13 43 -2 77 -7 77 -13z m275 -25 l0 -30 -115 0
-115 0 0 30 0 30 115 0 115 0 0 -30z m-312 -7 c-21 -2 -57 -2 -80 0 -24 2 -7
4 37 4 44 0 63 -2 43 -4z m310 -70 c-3 -16 -17 -18 -107 -21 -116 -3 -133 0
-125 23 5 12 27 15 121 15 104 0 114 -2 111 -17z m-1968 -838 l0 -105 -105 0
-105 0 0 105 0 105 105 0 105 0 0 -105z"/>
<path d="M2412 5517 c-67 -72 34 -172 103 -102 32 31 33 74 2 103 -31 29 -77
29 -105 -1z m82 -39 c8 -14 7 -21 -6 -34 -30 -30 -75 9 -48 42 16 18 39 15 54
-8z"/>
<path d="M3076 6911 c-40 -26 -55 -57 -56 -109 0 -37 6 -50 34 -78 28 -28 42
-34 75 -34 104 0 158 84 114 177 -28 60 -111 81 -167 44z m118 -49 c29 -33 29
-67 1 -100 -34 -41 -67 -41 -106 -3 -34 35 -36 59 -9 94 30 38 83 42 114 9z"/>
<path d="M3104 6845 c-30 -30 -30 -46 -1 -73 28 -27 49 -28 70 -4 50 55 -17
129 -69 77z m59 -29 c9 -22 -19 -42 -37 -26 -19 15 -10 40 14 40 10 0 20 -6
23 -14z"/>
<path d="M1508 6579 c-53 -39 -61 -135 -15 -176 49 -45 96 -54 147 -28 43 22
60 53 60 108 0 42 -5 54 -34 83 -29 29 -40 34 -82 34 -33 -1 -58 -7 -76 -21z
m127 -44 c50 -49 19 -125 -50 -125 -72 0 -104 86 -49 129 35 28 69 26 99 -4z"/>
<path d="M1552 6524 c-24 -17 -30 -62 -10 -82 17 -17 64 -15 82 4 22 21 20 50
-4 74 -24 24 -38 25 -68 4z m54 -53 c-10 -16 -36 -13 -43 5 -8 22 18 37 36 20
7 -8 10 -19 7 -25z"/>
<path d="M3762 5886 c-33 -31 -37 -39 -37 -85 0 -43 5 -55 31 -82 81 -80 204
-27 204 88 0 66 -52 113 -125 113 -26 0 -45 -9 -73 -34z m133 -31 c40 -39 32
-96 -16 -120 -39 -21 -56 -19 -84 10 -35 34 -34 86 1 114 35 28 69 26 99 -4z"/>
<path d="M3812 5844 c-26 -18 -30 -65 -7 -84 22 -18 66 -15 82 6 19 25 16 51
-7 74 -24 24 -38 25 -68 4z m48 -24 c11 -7 12 -14 4 -27 -15 -24 -33 -28 -40
-9 -7 18 1 46 13 46 4 0 15 -5 23 -10z"/>
<path d="M4628 5904 c-57 -30 -74 -110 -38 -169 46 -74 166 -71 205 5 57 110
-58 223 -167 164z m103 -37 c20 -15 39 -51 39 -72 0 -24 -55 -75 -80 -75 -27
0 -80 52 -80 78 0 11 12 34 26 51 28 33 66 40 95 18z"/>
<path d="M4668 5849 c-44 -25 -43 -75 3 -99 53 -29 96 60 47 94 -26 19 -27 19
-50 5z m42 -35 c11 -12 11 -18 -2 -31 -19 -18 -38 -10 -38 16 0 33 20 40 40
15z"/>
<path d="M3989 5825 c-1 -3 -2 -14 -2 -25 -1 -19 5 -20 278 -21 l280 -2 0 24
0 24 -277 3 c-153 1 -278 0 -279 -3z"/>
<path d="M4830 5803 l0 -28 290 0 290 0 0 28 0 27 -290 0 -290 0 0 -27z"/>
<path d="M2495 5200 c-57 -18 -139 -75 -180 -125 -38 -48 -65 -113 -79 -192
l-5 -33 360 0 361 0 -5 54 c-10 110 -95 223 -205 274 -62 28 -190 40 -247 22z"/>
<path d="M2234 4613 c12 -333 51 -566 106 -636 11 -14 20 -28 20 -32 0 -16
-76 -34 -190 -46 -118 -11 -221 -11 -1125 5 -70 1 -70 1 -73 -27 l-3 -28 -109
7 -109 7 -5 -34 c-12 -69 -36 -260 -36 -282 0 -20 8 -25 61 -36 l60 -12 -35
-47 c-20 -26 -50 -71 -67 -101 -29 -49 -32 -62 -36 -165 -8 -173 25 -282 119
-394 72 -85 165 -147 301 -197 141 -52 149 -28 44 130 -133 199 -177 297 -177
396 l0 47 123 6 c67 3 237 10 377 16 364 16 762 48 985 81 229 33 347 65 394
105 39 32 61 105 61 198 0 140 -57 408 -138 649 -16 48 -28 87 -27 87 2 0 80
-60 173 -132 94 -73 236 -184 316 -246 80 -62 146 -117 146 -121 0 -9 61 -311
125 -616 19 -93 58 -282 86 -420 28 -137 53 -252 55 -254 2 -3 32 1 66 7 34 6
65 8 69 4 3 -4 22 -58 41 -119 l36 -113 -1934 0 -1934 0 0 -40 c0 -36 3 -40
25 -40 24 0 25 -2 25 -69 0 -65 -2 -70 -22 -73 -20 -3 -23 -10 -26 -55 l-3
-53 191 0 192 0 34 -34 34 -34 0 -595 c0 -588 0 -595 -21 -621 -40 -51 -63
-56 -254 -56 l-175 0 0 -49 c0 -44 3 -50 23 -53 20 -3 22 -8 22 -73 0 -65 -2
-70 -22 -73 -19 -3 -23 -10 -23 -43 l0 -39 4500 0 4500 0 0 1000 0 1000 -2482
1 c-1949 0 -2474 3 -2443 13 39 11 40 12 43 64 3 56 7 60 38 37 12 -8 44 -23
73 -34 l51 -21 143 25 c398 68 636 217 662 415 8 59 -6 134 -26 138 -8 1 -53
-32 -99 -74 -163 -148 -269 -196 -434 -198 l-99 -1 -18 55 c-9 30 -34 111 -54
180 -21 69 -79 251 -130 405 -196 589 -313 856 -406 924 -57 42 -438 294 -657
435 l-212 136 -362 0 -361 0 7 -187z m664 -2392 c9 -5 12 -28 10 -77 l-3 -69
-51 -3 -51 -3 -6 67 c-3 37 -3 74 0 81 6 15 80 18 101 4z m250 -74 l3 -78 -58
3 -58 3 -3 64 c-4 89 -2 93 60 89 l53 -3 3 -78z m237 3 l0 -75 -57 -3 -58 -3
0 74 c0 40 3 77 7 81 4 4 30 6 58 4 l50 -3 0 -75z m235 0 l0 -80 -55 0 -55 0
0 73 c0 41 3 77 7 80 3 4 28 7 55 7 l48 0 0 -80z m238 -2 l3 -78 -56 0 -55 0
0 73 c0 41 3 77 7 81 4 4 28 6 53 4 l45 -3 3 -77z m240 0 l3 -78 -56 0 -55 0
0 73 c0 41 3 77 7 81 4 4 28 6 53 4 l45 -3 3 -77z m242 2 l0 -80 -55 0 -55 0
0 80 0 80 55 0 55 0 0 -80z m238 -2 l3 -78 -61 0 -60 0 0 73 c0 41 3 77 7 81
4 4 30 6 58 4 l50 -3 3 -77z m237 2 l0 -75 -57 -3 -58 -3 0 74 c0 40 3 77 7
81 4 4 30 6 58 4 l50 -3 0 -75z m243 -2 l3 -78 -61 0 -60 0 0 73 c0 41 3 77 7
81 4 4 30 6 58 4 l50 -3 3 -77z m230 0 l3 -78 -56 0 -55 0 0 81 0 80 53 -3 52
-3 3 -77z m242 2 l0 -80 -55 0 -55 0 0 80 0 80 55 0 55 0 0 -80z m238 -3 l3
-78 -58 3 -58 3 -3 64 c-4 89 -2 93 60 89 l53 -3 3 -78z m237 3 l0 -75 -55 0
-55 0 -3 64 c-4 89 -2 93 60 89 l53 -3 0 -75z m243 -3 l3 -78 -58 3 -58 3 -3
64 c-4 89 -2 93 60 89 l53 -3 3 -78z m236 67 c3 -9 6 -37 6 -64 0 -75 -4 -80
-66 -80 l-54 0 0 73 c0 41 3 77 7 80 3 4 28 7 54 7 33 0 49 -4 53 -16z m236
-64 l0 -80 -55 0 -55 0 0 73 c0 41 3 77 7 80 3 4 28 7 55 7 l48 0 0 -80z m240
0 l0 -80 -55 0 -55 0 0 74 c0 82 1 84 68 85 l42 1 0 -80z m-6680 1 c0 -65 -1
-69 -24 -73 -13 -3 -38 -3 -55 0 l-31 4 0 69 0 69 55 0 55 0 0 -69z m240 -1
l0 -70 -55 0 -55 0 0 70 0 70 55 0 55 0 0 -70z m240 0 c0 -74 2 -72 -55 -72
-57 0 -55 -2 -55 72 l0 70 55 0 55 0 0 -70z m240 1 c0 -39 -3 -72 -7 -74 -5
-2 -29 -2 -55 1 l-48 4 0 69 0 69 55 0 55 0 0 -69z m240 0 l0 -69 -32 -3 c-74
-9 -78 -5 -78 72 l0 69 55 0 55 0 0 -69z m240 0 c0 -72 -7 -83 -46 -76 -11 2
-31 4 -45 4 -21 1 -26 5 -24 24 1 12 3 43 4 70 l1 47 55 0 55 0 0 -69z m238 0
c2 -35 -1 -68 -7 -74 -5 -5 -30 -6 -58 -2 l-49 6 -2 70 -3 70 58 -3 58 -3 3
-64z m240 -3 l-3 -73 -57 -3 -58 -3 0 76 0 75 60 0 61 0 -3 -72z m232 -3 l0
-75 -55 0 -55 0 0 75 0 75 55 0 55 0 0 -75z m240 0 l0 -75 -55 0 -55 0 0 75 0
75 55 0 55 0 0 -75z m240 0 l0 -75 -55 0 -55 0 0 75 0 75 55 0 55 0 0 -75z
m4530 0 l0 -75 -55 0 -55 0 0 75 0 75 55 0 55 0 0 -75z m238 3 l-3 -73 -52 -3
-53 -3 0 75 0 76 55 0 56 0 -3 -72z m242 3 l0 -69 -43 -3 c-75 -7 -77 -5 -77
65 0 34 3 66 7 69 3 4 30 7 60 7 l53 0 0 -69z m230 0 l0 -69 -40 -4 c-59 -5
-70 5 -70 62 0 74 5 80 61 80 l49 0 0 -69z m240 -1 c0 -39 -4 -71 -10 -71 -5
-1 -17 -1 -25 -1 -8 0 -28 0 -45 1 l-30 1 0 70 0 70 55 0 55 0 0 -70z m240 1
l0 -69 -45 -4 c-24 -2 -49 -2 -55 0 -5 2 -10 35 -10 73 l0 69 55 0 55 0 0 -69z
m240 -1 c0 -38 -3 -70 -7 -71 -5 0 -28 -1 -53 -2 l-45 -2 -3 73 -3 72 56 0 55
0 0 -70z m240 1 l0 -69 -45 -4 c-24 -2 -49 -2 -55 0 -5 2 -10 35 -10 73 l0 69
55 0 55 0 0 -69z m-7270 -198 c16 -9 33 -27 39 -40 8 -16 11 -211 11 -614 0
-655 3 -626 -67 -655 -48 -21 -809 -20 -858 0 -67 28 -65 10 -65 667 l0 591
34 34 34 34 422 0 c376 0 425 -2 450 -17z m1208 1 c56 -39 55 -26 48 -662 -6
-648 -3 -619 -72 -648 -30 -12 -104 -14 -445 -12 l-411 3 -34 37 -34 38 0 596
0 596 34 34 34 34 429 0 c372 0 431 -2 451 -16z m1218 -18 l34 -34 0 -592 c0
-535 -2 -595 -17 -620 -32 -55 -32 -55 -482 -55 -466 0 -457 -1 -487 70 -21
50 -21 1149 0 1199 28 68 14 66 489 66 l429 0 34 -34z m1198 9 c14 -13 31 -37
37 -52 7 -19 8 -211 4 -608 -6 -487 -9 -584 -22 -603 -31 -50 -53 -52 -480
-52 -359 0 -401 2 -433 18 -19 9 -40 28 -47 42 -19 38 -18 1195 1 1229 28 50
31 50 487 51 l426 0 27 -25z m1194 9 c56 -39 55 -25 47 -666 -7 -560 -8 -590
-27 -613 -34 -44 -67 -46 -496 -43 l-404 3 -34 37 -34 38 0 596 0 596 34 34
34 34 429 0 c372 0 431 -2 451 -16z m1201 0 c51 -36 51 -41 51 -651 0 -521 -1
-571 -18 -603 -34 -69 -39 -70 -482 -70 -443 0 -448 1 -482 70 -17 32 -18 82
-18 603 0 610 0 615 51 651 21 14 72 16 449 16 377 0 428 -2 449 -16z m1213
-13 l33 -29 3 -596 c2 -529 1 -600 -13 -627 -30 -57 -45 -59 -472 -59 -235 0
-403 4 -425 10 -20 6 -46 22 -58 37 -20 25 -20 36 -20 625 l0 600 34 34 34 34
426 0 426 0 32 -29z m-8552 -1487 l0 -75 -52 3 -53 3 -3 73 -3 72 56 0 55 0 0
-76z m240 0 l0 -75 -52 3 -53 3 -3 59 c-4 82 -1 86 58 86 l50 0 0 -76z m240 0
l0 -75 -52 3 -53 3 -3 73 -3 72 56 0 55 0 0 -76z m238 4 l-3 -73 -52 -3 -53
-3 0 75 0 76 55 0 56 0 -3 -72z m240 0 l-3 -73 -52 -3 -53 -3 0 75 0 76 55 0
56 0 -3 -72z m240 0 l-3 -73 -52 -3 c-50 -3 -52 -2 -55 25 -2 15 -1 49 0 76
l4 47 54 0 55 0 -3 -72z m232 -4 l0 -75 -52 3 -53 3 -1 65 c-1 36 0 68 3 73 2
4 26 7 54 7 l49 0 0 -76z m240 1 l0 -75 -55 0 -55 0 0 75 0 75 55 0 55 0 0
-75z m240 0 l0 -75 -55 0 -55 0 0 75 0 75 55 0 55 0 0 -75z m240 0 l0 -75 -55
0 -55 0 0 75 0 75 55 0 55 0 0 -75z m238 3 l-3 -73 -52 -3 -53 -3 0 75 0 76
55 0 56 0 -3 -72z m237 -3 l0 -70 -52 -3 -53 -3 0 76 0 76 53 -3 52 -3 0 -70z
m243 3 l-3 -73 -52 -3 c-50 -3 -52 -2 -55 25 -2 15 -1 49 0 76 l4 47 54 0 55
0 -3 -72z m232 -3 l0 -75 -55 0 -55 0 0 75 0 75 55 0 55 0 0 -75z m240 -1 l0
-75 -52 3 -53 3 -3 73 -3 72 56 0 55 0 0 -76z m240 1 l0 -75 -55 0 -55 0 0 75
0 75 55 0 55 0 0 -75z m240 0 l0 -75 -55 0 -55 0 0 75 0 75 55 0 55 0 0 -75z
m238 3 l-3 -73 -52 -3 -53 -3 0 75 0 76 55 0 56 0 -3 -72z m237 -3 l0 -70 -55
0 -55 0 -3 59 c-4 84 -2 88 60 84 l53 -3 0 -70z m235 0 l0 -75 -49 0 c-35 0
-51 4 -55 16 -8 21 -8 119 1 127 3 4 28 7 55 7 l48 0 0 -75z m242 9 c1 -36 0
-70 -3 -76 -3 -5 -28 -8 -55 -6 l-49 3 -3 59 c-4 81 -1 86 57 86 l49 0 4 -66z
m238 -9 l0 -75 -55 0 -55 0 0 75 0 75 55 0 55 0 0 -75z m240 0 l0 -75 -55 0
-55 0 0 75 0 75 55 0 55 0 0 -75z m238 3 l-3 -73 -52 -3 -53 -3 0 75 0 76 55
0 56 0 -3 -72z m237 -3 l0 -70 -52 -3 -53 -3 0 76 0 76 53 -3 52 -3 0 -70z
m240 0 l0 -70 -49 -3 c-27 -2 -52 1 -55 6 -3 6 -4 40 -3 76 l4 67 51 -3 52 -3
0 -70z m235 0 l0 -75 -55 0 -55 0 0 75 0 75 55 0 55 0 0 -75z m240 -1 l0 -75
-52 3 -53 3 -3 73 -3 72 56 0 55 0 0 -76z m240 1 l0 -75 -55 0 -55 0 0 75 0
75 55 0 55 0 0 -75z m240 0 l0 -75 -55 0 -55 0 0 75 0 75 55 0 55 0 0 -75z
m240 0 l0 -75 -55 0 -55 0 0 75 0 75 55 0 55 0 0 -75z m238 3 l-3 -73 -55 0
-55 0 -3 59 c-4 83 -2 86 63 86 l56 0 -3 -72z m232 -4 l0 -75 -52 3 -53 3 -3
59 c-4 82 -1 86 58 86 l50 0 0 -76z m240 0 l0 -75 -52 3 -53 3 -3 73 -3 72 56
0 55 0 0 -76z m240 1 l0 -75 -55 0 -55 0 0 75 0 75 55 0 55 0 0 -75z m240 0
l0 -75 -55 0 -55 0 0 75 0 75 55 0 55 0 0 -75z m238 3 l-3 -73 -52 -3 -53 -3
0 75 0 76 55 0 56 0 -3 -72z"/>
</g>
</svg>
